<?xml version="1.0" encoding="iso-8859-1"?>
<!-- Uploaded to: SVG Repo, www.svgrepo.com, Generator: SVG Repo Mixer Tools -->
<svg height="800px" width="800px" version="1.1" id="Layer_1" xmlns="http://www.w3.org/2000/svg" xmlns:xlink="http://www.w3.org/1999/xlink" 
	 viewBox="0 0 496.2 496.2" xml:space="preserve">
<path style="fill:#A3D5E0;" d="M248.1,0C111.1,0,0,111.1,0,248.1s111.1,248.1,248.1,248.1s248.1-111.1,248.1-248.1S385.1,0,248.1,0z
	"/>
<polygon style="fill:#C7C8C9;" points="247.9,317 208.3,322.3 210.2,335.4 247.8,363.5 286,335.4 287.9,322.3 "/>
<path style="fill:#2A3F49;" d="M418.5,382.8c-8.5-27.3-81.2-49.3-170.8-49.3s-161.5,22-170,49.3c-2.6,8.5-5.5,22.2-8.3,37.4
	c45.1,46.9,108.5,76,178.7,76s133.6-29.2,178.7-76C424.1,405,421.2,391.2,418.5,382.8z"/>
<g>
	<polygon style="fill:#AF9604;" points="325,463.6 326.2,456.1 319.6,459.6 312.9,456.1 314.1,463.6 308.7,468.8 316.2,469.9 
		319.5,476.7 322.9,469.9 330.4,468.9 	"/>
	<polygon style="fill:#AF9604;" points="311.2,436 314.6,455.1 319.4,457.7 324.6,455.1 328,436 	"/>
</g>
<g>
	<path style="fill:#172023;" d="M147.4,343.9c-1.7,0.4-3.3,0.8-4.9,1.2l3,14.9l-7.7,1.6l-3-14.4c-1.6,0.5-3.2,0.9-4.8,1.4l2.9,14
		l17.6-3.6L147.4,343.9z"/>
	<path style="fill:#172023;" d="M174.5,338.7c-2.2,0.3-4.4,0.7-6.5,1.1l3.1,15l6.5-1.3L174.5,338.7z"/>
	<path style="fill:#172023;" d="M160.2,341.2c-1.7,0.3-3.4,0.7-5,1l3.1,15.2l5-1L160.2,341.2z"/>
	<path style="fill:#172023;" d="M122.5,351c-2.2,0.8-4.3,1.5-6.3,2.3l2.5,12.2l6.5-1.3L122.5,351z"/>
</g>
<g>
	<path style="fill:#AF9604;" d="M167.9,339.8c-2.6,0.4-5.2,0.9-7.8,1.4l3.1,15.2l7.7-1.6L167.9,339.8z"/>
	<path style="fill:#AF9604;" d="M130.1,348.5c-2.6,0.8-5.1,1.6-7.6,2.5l2.7,13.2l7.7-1.6L130.1,348.5z"/>
	<path style="fill:#AF9604;" d="M142.5,345.1c-2.6,0.7-5.2,1.3-7.6,2l3,14.4l7.7-1.6L142.5,345.1z"/>
	<path style="fill:#AF9604;" d="M155.1,342.2c-2.6,0.5-5.2,1.1-7.7,1.7l3.1,15.1l7.7-1.6L155.1,342.2z"/>
</g>
<g>
	<path style="fill:#172023;" d="M320.4,338.6l-3,14.8l6.5,1.3l3.1-15.1C324.8,339.3,322.7,338.9,320.4,338.6z"/>
	<path style="fill:#172023;" d="M360.1,346.9l-3,14.7l-7.7-1.6l3.1-15.1c-1.6-0.4-3.3-0.8-4.9-1.2l-3.1,15.3l17.6,3.6l2.9-14.3
		C363.3,347.8,361.7,347.3,360.1,346.9z"/>
	<path style="fill:#172023;" d="M334.8,341l-3.1,15.3l5,1l3.1-15.4C338.1,341.7,336.5,341.4,334.8,341z"/>
	<path style="fill:#172023;" d="M372.4,350.7l-2.8,13.5l6.5,1.3l2.6-12.6C376.7,352.1,374.6,351.4,372.4,350.7z"/>
</g>
<g>
	<path style="fill:#AF9604;" d="M327,339.6l-3.1,15.1l7.7,1.6l3.1-15.3C332.2,340.5,329.6,340.1,327,339.6z"/>
	<path style="fill:#AF9604;" d="M364.9,348.3l-2.9,14.3l7.7,1.6l2.8-13.5C370,349.8,367.5,349,364.9,348.3z"/>
	<path style="fill:#AF9604;" d="M352.4,344.9l-3.1,15.1l7.7,1.6l3-14.7C357.6,346.2,355,345.5,352.4,344.9z"/>
	<path style="fill:#AF9604;" d="M339.8,342l-3.1,15.4l7.7,1.6l3.1-15.3C345,343.1,342.4,342.6,339.8,342z"/>
</g>
<path style="fill:#FFFFFF;" d="M247.7,333.4c-89.6,0,0.4,162.8,0.4,162.8S337.3,333.4,247.7,333.4z"/>
<polygon style="fill:#172023;" points="248.1,360.5 232.3,368.4 248.1,394 263.8,368.4 "/>
<g>
	<path style="fill:#E2A379;" d="M287,282.1h-77.8c12.1,36.6,1,53.3,1,53.3l26.9,6.1h22l26.9-6.1C286,335.4,274.9,318.7,287,282.1z"
		/>
	<path style="fill:#E2A379;" d="M247.9,317l-37.7,18.4c0,0,16.8,28.1,37.6,28.1s38.2-28.1,38.2-28.1L247.9,317z"/>
</g>
<path style="fill:#4C230C;" d="M248.1,61.6c-48.7,0-88.3,21.2-88.3,113.6c0,31.3,6.2,55.8,15.5,74.7c20.4,41.6,33.8,56.1,72.8,56.1
	s52.4-14.5,72.8-56.1c9.3-18.9,15.5-43.4,15.5-74.7C336.4,82.8,296.8,61.6,248.1,61.6z"/>
<g>
	<path style="fill:#F4B382;" d="M248.1,61.6c-48.7,0-77.3,21.2-77.3,113.6c0,7.5,4.1,30.1,4.1,30.1c-0.1,14.8,37.2,65.8,73.2,65.8
		s72.7-51,72.7-64.5c0,0,4.6-23.6,4.6-31.4C325.4,82.8,296.8,61.6,248.1,61.6z"/>
	<path style="fill:#F4B382;" d="M161.4,178c-8.4,1.4-14.9,5.1-10.1,32.9s10.7,29.1,19.1,27.7L161.4,178z"/>
	<path style="fill:#F4B382;" d="M334.9,178l-9,60.6c8.4,1.4,14.3,0.1,19.1-27.7C349.7,183.1,343.3,179.5,334.9,178z"/>
</g>
<g>
	<path style="fill:#4C230C;" d="M248.1,59.1c-58,0-88.3,23.7-88.3,116.1l38.8-68.4c0,0,27.5,4.3,49.5,4.3s46.2-4.3,46.2-4.3
		l42.1,68.4C336.4,82.8,306.1,59.1,248.1,59.1z"/>
	<path style="fill:#4C230C;" d="M180.1,138.6l-14.6,2.2c-4.2,10.9-5.6,24.4-5.6,37.5c0,0,8.8-1.9,8.8,2.6l2.8,27.6l3.9-1.9
		C175,183.6,180.1,138.6,180.1,138.6z"/>
</g>
<path style="fill:#191919;" d="M318.4,115.7l-70.3-12l-85.8,12l-3,3.5l4.3,5.6c0,0-0.2,14.5,13.9,14.5s31.6-5.5,70.6-5.5
	s56.3,5.5,70.6,5.5c14.4,0,14.2-14.9,14.2-14.9l4-5.2L318.4,115.7z"/>
<path style="fill:#FFFFFF;" d="M346.9,73.8c0,0-38.2-35-99-35s-98.7,35-98.7,35s-10.5,10.5-2,25c0.3,0.5,0.6,1,0.9,1.4
	c4.6,6.8,14.1,15.5,14.1,15.5l-3,3.5c0,0,49.8-17,88.8-17s88.8,17,88.8,17l-3-3.5c0,0,9.3-8.5,14-15.3c0.4-0.6,0.8-1.1,1.1-1.7
	C357.4,84.3,346.9,73.8,346.9,73.8z"/>
<path style="fill:#B7B7B6;" d="M262.4,69l-6.1,7.5h3.4c-0.7,4.6-4.6,8.3-9.6,9.1L250,69.1h4.5c1,0,1.7-0.9,1.7-2s-0.8-2-1.7-2H250
	v-5c2.5-0.9,4.2-3.3,4.2-6.1c0-3.5-3-6.4-6.5-6.4c-3.6,0-6.5,2.9-6.5,6.5c0,2.8,1.9,5.3,4.6,6.1v4.9h-4c-1,0-1.7,0.9-1.7,2
	s0.8,2,1.7,2h4l0.1,16.3c-4.8-0.9-8.4-4.5-9.1-8.9h3.1l-5.7-7.4l-6.1,7.5h3.6c1.2,7.3,7.1,12.9,14.6,13.7c0.4,0.7,1,1.2,1.7,1.2
	c0.7,0,1.3-0.4,1.7-1.1c7.7-0.7,13.9-6.4,15-13.9h3.4L262.4,69z M249,55.6c-0.7-0.6-1.8-0.6-2.5,0.1c-0.6-0.4-1-1-1-1.7
	c0-1.1,0.9-2,2.1-2.1c1.2,0,2.1,0.9,2.1,2C249.7,54.7,249.5,55.2,249,55.6z"/>
<path style="fill:#AF9604;" d="M334.2,115.9c-14.5-6.1-46.2-17.1-86.1-17.1s-71.6,11-86.1,17.1l-2.9,3.4l4.3,5.7
	c15.1-8.3,46-16.7,84.7-16.7s69.6,8.3,84.7,16.7l4.3-5.7L334.2,115.9z"/>
<path style="fill:#4C230C;" d="M330.8,140.8l-14.6-0.4c0,0,5.1,43.2,4.9,66.2l3.9,1.9l2.8-27.6c0-4.5,8.8-2.6,8.8-2.6
	C336.5,165.1,335.1,151.7,330.8,140.8z"/>
<g>
	<polygon style="fill:#D4D6D8;" points="287.9,322.3 248.1,363.9 284.7,374.1 305.8,337.8 	"/>
	<polygon style="fill:#D4D6D8;" points="208.3,322.3 190.4,337.8 211.5,374.1 248.1,363.9 	"/>
</g>
<path style="fill:#334D5C;" d="M248.1,489.9l-50.4-154.1l-1.1-3.4l-12.5,5.2l-19.5,48.5l63.7,109.3c6.5,0.5,13.1,0.8,19.8,0.8V489.9
	z"/>
<path style="fill:#2A3F49;" d="M311.5,337.4L311.5,337.4L311.5,337.4L311.5,337.4z"/>
<path style="fill:#334D5C;" d="M312.1,337.6l-0.6-0.2l0,0l0,0l-11.9-5l-1.1,3.5l-50.4,154v6.2c6.7,0,13.3-0.3,19.8-0.8l63.7-109.2
	L312.1,337.6z"/>
<path style="fill:#172023;" d="M267,419.5c-2-22.6-15.4-38.5-15.4-38.5h-3.5v0.7V381h-3.5c0,0-13.4,15.9-15.4,38.5
	c-0.3,2.9-0.5,6.3-0.8,10.1l19.7,60.4l0,0l19.8-60.5C267.6,425.8,267.3,422.4,267,419.5z"/>
<path style="fill:#4C230C;" d="M292.1,250.7c0-6.5-19.2-14.2-40.4-15.1c-1,0-3.4,2.3-3.6,2.3c-0.2,0-2.5-2.4-3.4-2.3
	c-21.3,0.9-40.5,8.6-40.5,15.1c0,2-1.6,16.8,5.8,12.5c6.1-7.9,19.8-14,34.5-14.5c1.2,0,2.4,1,3.7,1c1.3,0,2.6-1,3.8-1
	c14.6,0.6,27.6,5.6,34.3,14.5C293.7,267.5,292.1,252.8,292.1,250.7z"/>
</svg>